<svg xmlns="http://www.w3.org/2000/svg" width="79" height="79" viewBox="0 0 79 79">
    <g fill="none" fill-rule="evenodd">
        <circle cx="39.5" cy="39.5" r="39.5" fill="#DC6800"/>
        <path fill="#FFF" fill-rule="nonzero" d="M58.727 22.659c.509.226 1.092.313 2.28.313H62c.89 0 1.337 1.077.707 1.707l-3.124 3.124c-.391.392-.59.562-.853.727-.267.166-.545.282-.852.352-.302.07-.563.09-1.117.09H55c-.742 0-1.436-.202-2.032-.554L39.708 41.68c-.391.39-1.025.39-1.415 0-.39-.39-.39-1.024 0-1.414l13.26-13.261c-.351-.596-.553-1.29-.553-2.032v-1.756c0-.556.02-.818.09-1.122.072-.307.188-.586.356-.853.166-.264.338-.464.733-.855l3.117-3.094c.63-.626 1.704-.18 1.704.71v.963c0 1.188.087 1.771.313 2.28l1.98-1.98c.39-.39 1.024-.39 1.414 0 .39.39.39 1.024 0 1.414l-1.98 1.98zm-10.185 3.047c.468.293.61.91.316 1.379-.293.468-.91.61-1.378.316-2.522-1.58-5.437-2.429-8.48-2.429-8.837 0-16 7.163-16 16s7.163 16 16 16 16-7.163 16-16c0-3.008-.83-5.892-2.377-8.395-.29-.47-.144-1.086.326-1.376.47-.29 1.086-.145 1.376.325C56.065 34.342 57 37.59 57 40.972c0 9.941-8.059 18-18 18s-18-8.059-18-18 8.059-18 18-18c3.421 0 6.704.957 9.542 2.734zM39 34.972c.552 0 1 .448 1 1s-.448 1-1 1c-2.21 0-4 1.79-4 4s1.79 4 4 4 4-1.79 4-4c0-.552.448-1 1-1s1 .448 1 1c0 3.314-2.686 6-6 6s-6-2.686-6-6 2.686-6 6-6zm5.013-4.906c.502.231.721.825.49 1.327-.23.502-.824.721-1.326.49-1.298-.597-2.714-.911-4.177-.911-5.523 0-10 4.477-10 10s4.477 10 10 10 10-4.477 10-10c0-1.458-.312-2.87-.906-4.166-.23-.502-.01-1.095.492-1.326.502-.23 1.095-.01 1.326.492.713 1.556 1.088 3.252 1.088 5 0 6.627-5.373 12-12 12s-12-5.373-12-12 5.373-12 12-12c1.753 0 3.454.377 5.013 1.094zm9.575-8.26c-.296.293-.38.39-.449.5-.049.078-.079.15-.1.24-.03.126-.039.253-.039.67v1.756c0 1.105.895 2 2 2h1.76c.417 0 .544-.01.67-.039.089-.02.16-.05.24-.1.108-.067.205-.15.5-.444l1.472-1.474c-.851-.084-1.457-.269-2.067-.595-.826-.442-1.48-1.097-1.923-1.923-.324-.606-.509-1.208-.594-2.051l-1.47 1.46z"/>
    </g>
</svg>
