<svg xmlns="http://www.w3.org/2000/svg" width="79" height="79" viewBox="0 0 79 79">
    <g fill="none" fill-rule="evenodd">
        <circle cx="39.5" cy="39.5" r="39.5" fill="#018D8A"/>
        <path fill="#FFF" fill-rule="nonzero" d="M61 33.372v16.51c0 .553-.448 1-1 1s-1-.447-1-1V36.235l-.05.024-3.897 1.832c-.004 3.232-.235 6.854-.692 10.869-.228 2.004-1.31 3.813-2.969 4.962C48.412 55.985 44.278 57 39 57c-5.343 0-9.496-1.04-12.443-3.158-1.565-1.125-2.597-2.845-2.853-4.755-.465-3.47-.7-7.128-.704-10.972l-3.95-1.857c-1.8-.846-2.572-2.99-1.726-4.79.357-.759.967-1.37 1.726-1.726l15.81-7.431c1.49-.7 2.167-.947 2.985-1.098.779-.143 1.531-.143 2.31 0 .818.15 1.496.398 2.985 1.098l15.81 7.431c1.423.669 2.204 2.15 2.05 3.63zm-7.955 5.661L43.14 43.69c-1.49.7-2.167.947-2.985 1.098-.779.143-1.531.143-2.31 0-.818-.15-1.496-.398-2.985-1.098l-9.854-4.632c.039 3.413.266 6.668.68 9.764.183 1.365.92 2.593 2.038 3.397C30.287 54.06 34.041 55 39 55c4.903 0 8.65-.92 11.253-2.723 1.185-.82 1.958-2.113 2.12-3.545.405-3.553.629-6.787.672-9.699zm5.821-5.352c.376-.8.033-1.753-.767-2.129l-15.81-7.431c-1.347-.633-1.879-.827-2.496-.94-.54-.1-1.047-.1-1.586 0-.617.113-1.149.307-2.496.94L19.9 31.552c-.337.159-.609.43-.767.767-.376.8-.033 1.753.767 2.129l15.81 7.431c1.347.633 1.879.827 2.496.94.54.1 1.047.1 1.586 0 .617-.113 1.149-.307 2.496-.94l15.81-7.431c.337-.159.609-.43.767-.767z"/>
    </g>
</svg>
