<svg xmlns="http://www.w3.org/2000/svg" width="58" height="42" viewBox="0 0 58 42">
    <g fill="#8A507C" fill-opacity=".48">
        <path d="M9.86 17.494c1.798-5.185 5.807-9.098 10.75-10.49 5.567-1.93 2.841-8.392-2.089-6.735C6.921 3.794 0 13.382 0 25.908 0 35.706 5.143 42 13.127 42c7.985 0 12.992-5.224 12.992-13.344 0-11.623-10.15-14.393-16.259-11.162zM41.74 17.494c1.799-5.185 5.808-9.098 10.75-10.49 5.51-1.91 2.9-8.392-2.088-6.735-11.6 3.546-18.521 13.113-18.521 25.66C31.88 35.706 37.043 42 45.008 42 52.973 42 58 36.776 58 28.656c0-11.581-10.092-14.414-16.26-11.162z"/>
    </g>
</svg>
