<svg xmlns="http://www.w3.org/2000/svg" xmlns:xlink="http://www.w3.org/1999/xlink" width="2500" height="12223" viewBox="0 0 2500 12223">
  <defs>
    <clipPath id="clip-Artboard">
      <rect width="2500" height="12223"/>
    </clipPath>
  </defs>
  <g id="Artboard" clip-path="url(#clip-Artboard)">
    <rect width="2500" height="12223" fill="#fff"/>
    <circle id="Oval" cx="419.5" cy="419.5" r="419.5" transform="translate(1640 654)" fill="#5db750"/>
    <circle id="Oval_Copy_4" data-name="Oval Copy 4" cx="419.5" cy="419.5" r="419.5" transform="translate(42 491)" fill="#5db750"/>
    <path id="Combined_Shape" data-name="Combined Shape" d="M334.205,95.25A3.8,3.8,0,1,1,338,99,3.775,3.775,0,0,1,334.205,95.25Zm-30.394,0A3.8,3.8,0,1,1,307.61,99,3.775,3.775,0,0,1,303.811,95.25Zm-30.395,0a3.8,3.8,0,1,1,3.8,3.749A3.775,3.775,0,0,1,273.416,95.25Zm-30.394,0a3.8,3.8,0,1,1,3.8,3.749A3.775,3.775,0,0,1,243.023,95.25Zm-30.394,0a3.8,3.8,0,1,1,3.8,3.749A3.775,3.775,0,0,1,212.629,95.25Zm-30.394,0a3.8,3.8,0,1,1,3.8,3.749A3.775,3.775,0,0,1,182.235,95.25Zm-30.264,0a3.8,3.8,0,1,1,3.8,3.749A3.775,3.775,0,0,1,151.97,95.25Zm-30.394,0a3.8,3.8,0,1,1,3.8,3.749A3.775,3.775,0,0,1,121.576,95.25Zm-30.395,0A3.8,3.8,0,1,1,94.981,99,3.775,3.775,0,0,1,91.182,95.25Zm-30.394,0A3.8,3.8,0,1,1,64.588,99,3.775,3.775,0,0,1,60.788,95.25Zm-30.394,0A3.8,3.8,0,1,1,34.194,99,3.775,3.775,0,0,1,30.394,95.25ZM0,95.25A3.775,3.775,0,0,1,3.8,91.5a3.75,3.75,0,1,1,0,7.5A3.774,3.774,0,0,1,0,95.25Zm349.4-30A3.8,3.8,0,1,1,353.2,69,3.775,3.775,0,0,1,349.4,65.25Zm-30.394,0a3.8,3.8,0,1,1,3.8,3.749A3.775,3.775,0,0,1,319.009,65.25Zm-30.395,0a3.8,3.8,0,1,1,3.8,3.749A3.775,3.775,0,0,1,288.614,65.25Zm-30.394,0A3.8,3.8,0,1,1,262.02,69,3.775,3.775,0,0,1,258.22,65.25Zm-30.394,0a3.8,3.8,0,1,1,3.8,3.749A3.775,3.775,0,0,1,227.826,65.25Zm-30.394,0a3.8,3.8,0,1,1,3.8,3.749A3.775,3.775,0,0,1,197.432,65.25Zm-30.264,0a3.8,3.8,0,1,1,3.8,3.749A3.775,3.775,0,0,1,167.168,65.25Zm-30.394,0a3.8,3.8,0,1,1,3.8,3.749A3.775,3.775,0,0,1,136.774,65.25Zm-30.395,0a3.8,3.8,0,1,1,3.8,3.749A3.775,3.775,0,0,1,106.379,65.25Zm-30.394,0A3.8,3.8,0,1,1,79.785,69,3.775,3.775,0,0,1,75.985,65.25Zm-30.394,0A3.8,3.8,0,1,1,49.391,69,3.775,3.775,0,0,1,45.591,65.25Zm-30.394,0A3.8,3.8,0,1,1,19,69,3.775,3.775,0,0,1,15.2,65.25Zm319.008-31.5A3.8,3.8,0,1,1,338,37.5,3.775,3.775,0,0,1,334.205,33.75Zm-30.394,0a3.8,3.8,0,1,1,3.8,3.749A3.775,3.775,0,0,1,303.811,33.75Zm-30.395,0a3.8,3.8,0,1,1,3.8,3.749A3.775,3.775,0,0,1,273.416,33.75Zm-30.394,0a3.8,3.8,0,1,1,3.8,3.749A3.775,3.775,0,0,1,243.023,33.75Zm-30.394,0a3.8,3.8,0,1,1,3.8,3.749A3.775,3.775,0,0,1,212.629,33.75Zm-30.394,0a3.8,3.8,0,1,1,3.8,3.749A3.775,3.775,0,0,1,182.235,33.75Zm-30.264,0a3.8,3.8,0,1,1,3.8,3.749A3.775,3.775,0,0,1,151.97,33.75Zm-30.394,0a3.8,3.8,0,1,1,3.8,3.749A3.775,3.775,0,0,1,121.576,33.75Zm-30.395,0a3.8,3.8,0,1,1,3.8,3.749A3.775,3.775,0,0,1,91.182,33.75Zm-30.394,0a3.8,3.8,0,1,1,3.8,3.749A3.775,3.775,0,0,1,60.788,33.75Zm-30.394,0a3.8,3.8,0,1,1,3.8,3.749A3.775,3.775,0,0,1,30.394,33.75ZM0,33.75A3.775,3.775,0,0,1,3.8,30a3.75,3.75,0,1,1,0,7.5A3.774,3.774,0,0,1,0,33.75Zm349.4-30a3.8,3.8,0,0,1,7.6,0,3.8,3.8,0,0,1-7.6,0Zm-30.394,0a3.8,3.8,0,0,1,7.6,0,3.8,3.8,0,0,1-7.6,0Zm-30.395,0a3.8,3.8,0,0,1,7.6,0,3.8,3.8,0,0,1-7.6,0Zm-30.394,0a3.8,3.8,0,0,1,7.6,0,3.8,3.8,0,0,1-7.6,0Zm-30.394,0a3.8,3.8,0,0,1,7.6,0,3.8,3.8,0,0,1-7.6,0Zm-30.394,0a3.8,3.8,0,0,1,7.6,0,3.8,3.8,0,0,1-7.6,0Zm-30.264,0a3.8,3.8,0,0,1,7.6,0,3.8,3.8,0,0,1-7.6,0Zm-30.394,0a3.8,3.8,0,0,1,7.6,0,3.8,3.8,0,0,1-7.6,0Zm-30.395,0a3.8,3.8,0,0,1,7.6,0,3.8,3.8,0,0,1-7.6,0Zm-30.394,0a3.8,3.8,0,0,1,7.6,0,3.8,3.8,0,0,1-7.6,0Zm-30.394,0a3.8,3.8,0,0,1,7.6,0,3.8,3.8,0,0,1-7.6,0ZM15.2,3.75a3.8,3.8,0,0,1,7.6,0,3.8,3.8,0,0,1-7.6,0Z" transform="translate(1328 894)" fill="#2b6821"/>
    <g id="Group_22" data-name="Group 22" transform="translate(-57 5707)">
      <g id="Oval-2" data-name="Oval" transform="translate(65 2548)" fill="none" stroke-miterlimit="10">
        <path d="M118.5,237c30.133,0,50.7-19.795,71.606-38.32C214.61,176.97,237,153.813,237,118.5c0-28-20.993-47.318-37.228-67.6C178.056,23.779,155.949,0,118.5,0,79.474,0,53.012,26.73,31.42,55.839,16.8,75.544,0,92.08,0,118.5A118.5,118.5,0,0,0,118.5,237Z" stroke="none"/>
        <path d="M 118.5 219 C 140.1920776367188 219 156.2426910400391 204.7159271240234 174.8277740478516 188.1763153076172 L 178.1694641113281 185.2069244384766 C 204.0289306640625 162.2966918945313 219 144.0369262695313 219 118.5 C 219 101.6926956176758 207.5530700683594 88.15707397460938 194.2986907958984 72.48423004150391 C 191.3844604492188 69.03823089599609 188.4867706298828 65.60838317871094 185.720458984375 62.153076171875 C 162.2760772705078 32.86907577514648 145.4427642822266 18 118.5 18 C 92.84430694580078 18 71.12538146972656 32.52323150634766 45.8773078918457 66.56215667724609 C 43.45684432983398 69.82538604736328 40.97992324829102 73.00569152832031 38.52399826049805 76.15638732910156 C 27.05715370178223 90.86699676513672 18 102.4863052368164 18 118.5 C 18 173.9159240722656 63.08407592773438 219 118.5 219 M 118.5 237 C 53.05422973632813 237 0 183.9457702636719 0 118.5 C 0 92.08045959472656 16.80353927612305 75.54446411132813 31.42023086547852 55.83869171142578 C 53.01153945922852 26.72976875305176 79.47377014160156 0 118.5 0 C 155.9491577148438 0 178.0563812255859 23.77884674072266 199.7720794677734 50.90353775024414 C 216.0065460205078 71.18161773681641 237 90.50338745117188 237 118.5 C 237 153.8125457763672 214.6102294921875 176.9702301025391 190.1058502197266 198.6799163818359 C 169.1956176757813 217.2053833007813 148.6331481933594 237 118.5 237 Z" stroke="none" fill="#81a57b"/>
      </g>
      <g id="Oval-3" data-name="Oval" transform="translate(490 717)" fill="none" stroke-miterlimit="10">
        <path d="M71,142c18.054,0,30.375-11.86,42.9-22.96C128.585,106.033,142,92.158,142,71c0-16.774-12.578-28.351-22.305-40.5C106.684,14.247,93.438,0,71,0,47.617,0,31.762,16.015,18.826,33.456,10.068,45.263,0,55.171,0,71A71,71,0,0,0,71,142Z" stroke="none"/>
        <path d="M 71 131.1999969482422 C 83.99118041992188 131.1999969482422 93.60604858398438 122.6433639526367 104.7390899658203 112.7355880737305 L 106.7412261962891 110.9564514160156 C 122.2318649291992 97.2325439453125 131.1999969482422 86.29486083984375 131.1999969482422 71 C 131.1999969482422 60.93540954589844 124.3432235717773 52.82745361328125 116.4037246704102 43.43922805786133 C 114.6575469970703 41.37440872192383 112.9212265014648 39.31922912597656 111.2637252807617 37.24886322021484 C 97.21986389160156 19.70700073242188 87.13668060302734 10.80000019073486 71 10.80000019073486 C 55.63363647460938 10.80000019073486 42.62422561645508 19.49986457824707 27.49986457824707 39.89013671875 C 26.04954528808594 41.84545516967773 24.56536293029785 43.75113677978516 23.09377288818359 45.63899993896484 C 16.22522735595703 54.45063781738281 10.80000019073486 61.41059112548828 10.80000019073486 71 C 10.80000019073486 104.1944122314453 37.80559158325195 131.1999969482422 71 131.1999969482422 M 71 142 C 31.78777313232422 142 0 110.2122268676758 0 71 C 0 55.17058944702148 10.06795501708984 45.26295471191406 18.82559013366699 33.45608901977539 C 31.76218223571777 16.01531791687012 47.61718368530273 0 71 0 C 93.43791198730469 0 106.6835479736328 14.24722766876221 119.6946792602539 30.49913597106934 C 129.421630859375 42.64891052246094 142 54.22568130493164 142 71 C 142 92.15773010253906 128.5850524902344 106.0327758789063 113.9030914306641 119.0402755737305 C 101.3745880126953 130.1399536132813 89.05449676513672 142 71 142 Z" stroke="none" fill="#fff"/>
      </g>
      <g id="Oval_Copy" data-name="Oval Copy" transform="translate(244 379)" fill="none" stroke-miterlimit="10" opacity="0.489">
        <path d="M47,94c11.952,0,20.107-7.851,28.4-15.2C85.12,70.191,94,61.006,94,47c0-11.1-8.327-18.768-14.765-26.81C70.622,9.431,61.853,0,47,0,31.521,0,21.026,10.6,12.462,22.147,6.665,29.963,0,36.521,0,47A47,47,0,0,0,47,94Z" stroke="none"/>
        <path d="M 47 83.19999694824219 C 53.8621940612793 83.19999694824219 59.03523254394531 78.90631103515625 66.90719604492188 71.90077209472656 L 68.23880767822266 70.71749877929688 C 77.94184875488281 62.12107849121094 83.19999694824219 55.79526901245117 83.19999694824219 47 C 83.19999694824219 42.03265380859375 79.82569122314453 37.6841926574707 74.26838684082031 31.11288452148438 C 73.09119415283203 29.72088432312012 71.92095947265625 28.3350772857666 70.80353546142578 26.93930816650391 C 62.04903793334961 16.00423049926758 56.25411605834961 10.80000019073486 47 10.80000019073486 C 37.99742126464844 10.80000019073486 30.50419235229492 15.9515380859375 21.13626861572266 28.58107757568359 C 20.15869140625 29.89896202087402 19.15861511230469 31.18365478515625 18.1667308807373 32.45611572265625 C 13.46188449859619 38.49192428588867 10.80000019073486 42.14338302612305 10.80000019073486 47 C 10.80000019073486 66.96073150634766 27.03926849365234 83.19999694824219 47 83.19999694824219 M 47 94 C 21.04261589050293 94 0 72.95738220214844 0 47 C 0 36.52138519287109 6.664692401885986 29.96280860900879 12.46199989318848 22.14699935913086 C 21.02569198608398 10.60169219970703 31.52123069763184 0 47 0 C 61.85326766967773 0 70.62149810791016 9.431269645690918 79.2344970703125 20.18957710266113 C 85.67350006103516 28.23238372802734 94 35.8958854675293 94 47 C 94 61.0058479309082 85.11965179443359 70.19072723388672 75.40065765380859 78.80130767822266 C 67.10711669921875 86.14896392822266 58.95157623291016 94 47 94 Z" stroke="none" fill="#2b6821"/>
      </g>
      <g id="Oval_Copy_3" data-name="Oval Copy 3" transform="translate(1676.122 187.037) rotate(-50)" fill="none" stroke-miterlimit="10" opacity="0.489">
        <path d="M122,244c31.023,0,52.193-20.379,73.721-39.452C220.949,182.2,244,158.356,244,122c0-28.823-21.614-48.716-38.327-69.593C183.315,24.481,160.555,0,122,0,81.821,0,54.577,27.519,32.348,57.488,17.3,77.776,0,94.8,0,122A122,122,0,0,0,122,244Z" stroke="none"/>
        <path d="M 122 233.1999969482422 C 147.2750549316406 233.1999969482422 165.6635894775391 216.8352966308594 185.1318206787109 199.5096435546875 L 188.5590057373047 196.4642333984375 C 212.0838775634766 175.6223602294922 233.1999969482422 154.2442321777344 233.1999969482422 122 C 233.1999969482422 101.8653564453125 219.9592895507813 86.20864868164063 205.9411163330078 69.63264465332031 C 202.9858856201172 66.13817596435547 200.0467071533203 62.66058731079102 197.2415924072266 59.15670776367188 C 176.0605316162109 32.6999397277832 155.7791137695313 10.80000019073486 122 10.80000019073486 C 85.36482238769531 10.80000019073486 60.50694274902344 37.65358734130859 41.0224723815918 63.92200088500977 C 38.56758880615234 67.23164367675781 36.05476379394531 70.45693969726563 33.56388092041016 73.65247344970703 C 21.34905815124512 89.32264709472656 10.80000019073486 102.8559417724609 10.80000019073486 122 C 10.80000019073486 183.3158874511719 60.68411636352539 233.1999969482422 122 233.1999969482422 M 122 244 C 54.62129592895508 244 0 189.3787689208984 0 122 C 0 94.80017852783203 17.29982376098633 77.77576446533203 32.34823608398438 57.48794174194336 C 54.57729339599609 27.51929473876953 81.82112121582031 0 122 0 C 160.5552368164063 0 183.3154144287109 24.48117637634277 205.6725311279297 52.40700149536133 C 222.386474609375 73.2840576171875 244 93.17652893066406 244 122 C 244 158.3555297851563 220.9489440917969 182.1971740722656 195.7208251953125 204.5480651855469 C 174.1929931640625 223.6207580566406 153.0231781005859 244 122 244 Z" stroke="none" fill="#2b6821"/>
      </g>
      <g id="Oval_Copy_18" data-name="Oval Copy 18" transform="translate(2313.84 2042.6) rotate(-50)" fill="none" stroke-miterlimit="10" opacity="0.489">
        <path d="M86,172c21.869,0,36.792-14.366,51.967-27.81C155.751,128.434,172,111.628,172,86c0-20.318-15.236-34.341-27.018-49.057C129.222,17.257,113.178,0,86,0,57.677,0,38.473,19.4,22.8,40.524,12.195,54.826,0,66.826,0,86A86,86,0,0,0,86,172Z" stroke="none"/>
        <path d="M 86 161.1999969482422 C 102.6039962768555 161.1999969482422 114.5507507324219 150.5681457519531 128.3838500976563 138.2575531005859 L 130.8052978515625 136.1058502197266 C 146.8226470947266 121.9151992797852 161.1999969482422 107.404899597168 161.1999969482422 86 C 161.1999969482422 72.97360229492188 152.2324066162109 62.36970138549805 142.7382507324219 51.14315032958984 C 140.6364440917969 48.6578483581543 138.5464019775391 46.18434906005859 136.5513458251953 43.69240188598633 C 121.6310501098633 25.05574989318848 108.4347991943359 10.80000019073486 86 10.80000019073486 C 61.58864974975586 10.80000019073486 44.73949813842773 29.07830047607422 31.47710037231445 46.95830154418945 C 29.73130035400391 49.31195068359375 27.94459915161133 51.60575103759766 26.17325019836426 53.87820053100586 C 17.58415031433105 64.89704895019531 10.80000019073486 73.60040283203125 10.80000019073486 86 C 10.80000019073486 127.4654006958008 44.53459930419922 161.1999969482422 86 161.1999969482422 M 86 172 C 38.50350189208984 172 0 133.4965057373047 0 86 C 0 66.82634735107422 12.19495010375977 54.8255500793457 22.8028507232666 40.52425003051758 C 38.47249984741211 19.39884948730469 57.67720031738281 0 86 0 C 113.1782989501953 0 129.2223510742188 17.25720024108887 144.9822998046875 36.94264984130859 C 156.7642517089844 51.65924835205078 172 65.68180084228516 172 86 C 172 111.6277008056641 155.7509002685547 128.4340515136719 137.9671478271484 144.1896514892578 C 122.791748046875 157.6342926025391 107.8687973022461 172 86 172 Z" stroke="none" fill="#2b6821"/>
      </g>
      <g id="Oval_Copy_12" data-name="Oval Copy 12" transform="translate(2407.426 3897.012) rotate(-50)" fill="none" stroke-miterlimit="10" opacity="0.489">
        <path d="M65,130c16.529,0,27.808-10.858,39.277-21.019C117.719,97.072,130,84.37,130,65c0-15.357-11.515-25.955-20.42-37.078C97.668,13.043,85.542,0,65,0,43.593,0,29.078,14.662,17.235,30.629,9.217,41.438,0,50.508,0,65A65,65,0,0,0,65,130Z" stroke="none"/>
        <path d="M 65 119.1999969482422 C 76.54595184326172 119.1999969482422 85.22804260253906 111.473503112793 95.28108978271484 102.5269546508789 L 97.11563873291016 100.8967742919922 C 111.4384078979492 88.20745086669922 119.1999969482422 78.72850036621094 119.1999969482422 65 C 119.1999969482422 56.12009048461914 113.0226364135742 48.81558990478516 105.8698654174805 40.35763549804688 C 104.2659530639648 38.46104431152344 102.6711807250977 36.57322692871094 101.148681640625 34.67150115966797 C 88.47336578369141 18.8390007019043 79.40241241455078 10.80000019073486 65 10.80000019073486 C 51.25413513183594 10.80000019073486 39.56336212158203 18.65431785583496 25.90895462036133 37.06290817260742 C 24.57686424255371 38.85881805419922 23.21368217468262 40.60922622680664 21.86204528808594 42.34322738647461 C 15.0035457611084 51.1419563293457 10.80000019073486 56.94354629516602 10.80000019073486 65 C 10.80000019073486 94.88600158691406 35.11399841308594 119.1999969482422 65 119.1999969482422 M 65 130 C 29.10149955749512 130 0 100.8984985351563 0 65 C 0 50.50827407836914 9.217136383056641 41.43790817260742 17.23472785949707 30.62881851196289 C 29.07804489135742 14.66190910339355 43.59322738647461 0 65 0 C 85.54172515869141 0 97.66804504394531 13.04322719573975 109.5796356201172 27.92177200317383 C 118.4845886230469 39.04477310180664 130 49.64322662353516 130 65 C 130 84.36977386474609 117.7186813354492 97.07227325439453 104.2774963378906 108.9805450439453 C 92.80772399902344 119.1421813964844 81.52872467041016 130 65 130 Z" stroke="none" fill="#2b6821"/>
      </g>
      <g id="Oval_Copy_13" data-name="Oval Copy 13" transform="translate(0.426 3950.012) rotate(-50)" fill="none" stroke-miterlimit="10" opacity="0.489">
        <path d="M65,130c16.529,0,27.808-10.858,39.277-21.019C117.719,97.072,130,84.37,130,65c0-15.357-11.515-25.955-20.42-37.078C97.668,13.043,85.542,0,65,0,43.593,0,29.078,14.662,17.235,30.629,9.217,41.438,0,50.508,0,65A65,65,0,0,0,65,130Z" stroke="none"/>
        <path d="M 65 119.1999969482422 C 76.54595184326172 119.1999969482422 85.22804260253906 111.473503112793 95.28108978271484 102.5269546508789 L 97.11563873291016 100.8967742919922 C 111.4384078979492 88.20745086669922 119.1999969482422 78.72850036621094 119.1999969482422 65 C 119.1999969482422 56.12009048461914 113.0226364135742 48.81558990478516 105.8698654174805 40.35763549804688 C 104.2659530639648 38.46104431152344 102.6711807250977 36.57322692871094 101.148681640625 34.67150115966797 C 88.47336578369141 18.8390007019043 79.40241241455078 10.80000019073486 65 10.80000019073486 C 51.25413513183594 10.80000019073486 39.56336212158203 18.65431785583496 25.90895462036133 37.06290817260742 C 24.57686424255371 38.85881805419922 23.21368217468262 40.60922622680664 21.86204528808594 42.34322738647461 C 15.0035457611084 51.1419563293457 10.80000019073486 56.94354629516602 10.80000019073486 65 C 10.80000019073486 94.88600158691406 35.11399841308594 119.1999969482422 65 119.1999969482422 M 65 130 C 29.10149955749512 130 0 100.8984985351563 0 65 C 0 50.50827407836914 9.217136383056641 41.43790817260742 17.23472785949707 30.62881851196289 C 29.07804489135742 14.66190910339355 43.59322738647461 0 65 0 C 85.54172515869141 0 97.66804504394531 13.04322719573975 109.5796356201172 27.92177200317383 C 118.4845886230469 39.04477310180664 130 49.64322662353516 130 65 C 130 84.36977386474609 117.7186813354492 97.07227325439453 104.2774963378906 108.9805450439453 C 92.80772399902344 119.1421813964844 81.52872467041016 130 65 130 Z" stroke="none" fill="#2b6821"/>
      </g>
      <g id="Oval_Copy_14" data-name="Oval Copy 14" transform="translate(156.426 4860.012) rotate(-50)" fill="none" stroke-miterlimit="10" opacity="0.489">
        <path d="M65,130c16.529,0,27.808-10.858,39.277-21.019C117.719,97.072,130,84.37,130,65c0-15.357-11.515-25.955-20.42-37.078C97.668,13.043,85.542,0,65,0,43.593,0,29.078,14.662,17.235,30.629,9.217,41.438,0,50.508,0,65A65,65,0,0,0,65,130Z" stroke="none"/>
        <path d="M 65 119.1999969482422 C 76.54595184326172 119.1999969482422 85.22804260253906 111.473503112793 95.28108978271484 102.5269546508789 L 97.11563873291016 100.8967742919922 C 111.4384078979492 88.20745086669922 119.1999969482422 78.72850036621094 119.1999969482422 65 C 119.1999969482422 56.12009048461914 113.0226364135742 48.81558990478516 105.8698654174805 40.35763549804688 C 104.2659530639648 38.46104431152344 102.6711807250977 36.57322692871094 101.148681640625 34.67150115966797 C 88.47336578369141 18.8390007019043 79.40241241455078 10.80000019073486 65 10.80000019073486 C 51.25413513183594 10.80000019073486 39.56336212158203 18.65431785583496 25.90895462036133 37.06290817260742 C 24.57686424255371 38.85881805419922 23.21368217468262 40.60922622680664 21.86204528808594 42.34322738647461 C 15.0035457611084 51.1419563293457 10.80000019073486 56.94354629516602 10.80000019073486 65 C 10.80000019073486 94.88600158691406 35.11399841308594 119.1999969482422 65 119.1999969482422 M 65 130 C 29.10149955749512 130 0 100.8984985351563 0 65 C 0 50.50827407836914 9.217136383056641 41.43790817260742 17.23472785949707 30.62881851196289 C 29.07804489135742 14.66190910339355 43.59322738647461 0 65 0 C 85.54172515869141 0 97.66804504394531 13.04322719573975 109.5796356201172 27.92177200317383 C 118.4845886230469 39.04477310180664 130 49.64322662353516 130 65 C 130 84.36977386474609 117.7186813354492 97.07227325439453 104.2774963378906 108.9805450439453 C 92.80772399902344 119.1421813964844 81.52872467041016 130 65 130 Z" stroke="none" fill="#2b6821"/>
      </g>
      <g id="Oval_Copy_15" data-name="Oval Copy 15" transform="translate(956.122 4404.037) rotate(-50)" fill="none" stroke-miterlimit="10" opacity="0.489">
        <path d="M122,244c31.023,0,52.193-20.379,73.721-39.452C220.949,182.2,244,158.356,244,122c0-28.823-21.614-48.716-38.327-69.593C183.315,24.481,160.555,0,122,0,81.821,0,54.577,27.519,32.348,57.488,17.3,77.776,0,94.8,0,122A122,122,0,0,0,122,244Z" stroke="none"/>
        <path d="M 122 233.1999969482422 C 147.2750549316406 233.1999969482422 165.6635894775391 216.8352966308594 185.1318206787109 199.5096435546875 L 188.5590057373047 196.4642333984375 C 212.0838775634766 175.6223602294922 233.1999969482422 154.2442321777344 233.1999969482422 122 C 233.1999969482422 101.8653564453125 219.9592895507813 86.20864868164063 205.9411163330078 69.63264465332031 C 202.9858856201172 66.13817596435547 200.0467071533203 62.66058731079102 197.2415924072266 59.15670776367188 C 176.0605316162109 32.6999397277832 155.7791137695313 10.80000019073486 122 10.80000019073486 C 85.36482238769531 10.80000019073486 60.50694274902344 37.65358734130859 41.0224723815918 63.92200088500977 C 38.56758880615234 67.23164367675781 36.05476379394531 70.45693969726563 33.56388092041016 73.65247344970703 C 21.34905815124512 89.32264709472656 10.80000019073486 102.8559417724609 10.80000019073486 122 C 10.80000019073486 183.3158874511719 60.68411636352539 233.1999969482422 122 233.1999969482422 M 122 244 C 54.62129592895508 244 0 189.3787689208984 0 122 C 0 94.80017852783203 17.29982376098633 77.77576446533203 32.34823608398438 57.48794174194336 C 54.57729339599609 27.51929473876953 81.82112121582031 0 122 0 C 160.5552368164063 0 183.3154144287109 24.48117637634277 205.6725311279297 52.40700149536133 C 222.386474609375 73.2840576171875 244 93.17652893066406 244 122 C 244 158.3555297851563 220.9489440917969 182.1971740722656 195.7208251953125 204.5480651855469 C 174.1929931640625 223.6207580566406 153.0231781005859 244 122 244 Z" stroke="none" fill="#2b6821"/>
      </g>
      <path id="Oval_Copy_8" data-name="Oval Copy 8" d="M65,130c16.529,0,27.808-10.858,39.277-21.019C117.719,97.072,130,84.37,130,65c0-15.357-11.515-25.955-20.42-37.078C97.668,13.043,85.542,0,65,0,43.593,0,29.078,14.662,17.235,30.629,9.217,41.438,0,50.508,0,65A65,65,0,0,0,65,130Z" transform="matrix(0.174, -0.985, 0.985, 0.174, 2031.7, 1760.725)" fill="#d8d8d8" opacity="0.489"/>
      <path id="Oval_Copy_16" data-name="Oval Copy 16" d="M49,98c12.46,0,20.963-8.185,29.609-15.845C88.742,73.178,98,63.6,98,49c0-11.577-8.681-19.566-15.394-27.951C73.627,9.833,64.485,0,49,0,32.863,0,21.92,11.053,12.992,23.089,6.948,31.238,0,38.075,0,49A49,49,0,0,0,49,98Z" transform="matrix(0.174, -0.985, 0.985, 0.174, 335.236, 3889.747)" fill="#d8d8d8" opacity="0.489"/>
      <path id="Oval_Copy_10" data-name="Oval Copy 10" d="M22,44c5.594,0,9.412-3.675,13.294-7.114C39.843,32.855,44,28.556,44,22c0-5.2-3.9-8.785-6.912-12.55C33.057,4.415,28.953,0,22,0,14.755,0,9.842,4.962,5.833,10.367,3.12,14.025,0,17.1,0,22A22,22,0,0,0,22,44Z" transform="matrix(0.174, -0.985, 0.985, 0.174, 2235.514, 2464.845)" fill="#d8d8d8" opacity="0.489"/>
      <path id="Oval_Copy_11" data-name="Oval Copy 11" d="M22,44c5.594,0,9.412-3.675,13.294-7.114C39.843,32.855,44,28.556,44,22c0-5.2-3.9-8.785-6.912-12.55C33.057,4.415,28.953,0,22,0,14.755,0,9.842,4.962,5.833,10.367,3.12,14.025,0,17.1,0,22A22,22,0,0,0,22,44Z" transform="matrix(0.174, -0.985, 0.985, 0.174, 1299.514, 2363.845)" fill="#d8d8d8" opacity="0.489"/>
      <g id="Oval-4" data-name="Oval" transform="translate(2248 187)" fill="none" stroke-miterlimit="10">
        <path d="M94.558,175c23.522,0,39.573-5.451,55.895-19.912,19.128-16.946,36.605-35.023,36.605-62.588,0-21.854-16.387-36.936-29.06-52.765C141.047,18.562,123.791,0,94.558,0,64.095,0,23.438,20.865,6.584,43.587-4.825,58.969,2.058,71.877,2.058,92.5,2.058,143.586,43.472,175,94.558,175Z" stroke="none"/>
        <path d="M 94.55811309814453 160.9600067138672 C 115.0382308959961 160.9600067138672 127.663932800293 156.5202331542969 141.142578125 144.5787658691406 C 161.3305206298828 126.6931762695313 173.0181121826172 112.4378204345703 173.0181121826172 92.5 C 173.0181121826172 79.37647247314453 164.0815734863281 68.80935668945313 153.7339935302734 56.57364654541016 C 151.459228515625 53.88382339477539 149.1973419189453 51.20652770996094 147.0381164550781 48.50947189331055 C 128.7355194091797 25.64800071716309 115.5936965942383 14.03999996185303 94.55811309814453 14.03999996185303 C 69.13487243652344 14.03999996185303 32.57828521728516 32.10993957519531 17.86099243164063 51.95146942138672 C 13.32069778442383 58.07258987426758 13.54658031463623 62.52776336669922 14.86799240112305 74.50941467285156 C 15.444580078125 79.73764801025391 16.09811019897461 85.66346740722656 16.09811019897461 92.5 C 16.09811019897461 132.8082427978516 48.3620491027832 160.9600067138672 94.55811309814453 160.9600067138672 M 94.55811309814453 175 C 43.47181701660156 175 2.058109760284424 143.5863494873047 2.058109760284424 92.5 C 2.058109760284424 71.87717437744141 -4.825184345245361 58.96929550170898 6.584462642669678 43.58717727661133 C 23.43846321105957 20.86499977111816 64.09464263916016 0 94.55811309814453 0 C 123.7905807495117 0 141.0472869873047 18.5615291595459 157.9983520507813 39.73482513427734 C 170.6708221435547 55.56370544433594 187.05810546875 70.6461181640625 187.05810546875 92.5 C 187.05810546875 120.0646438598633 169.5808715820313 138.1412963867188 150.4529876708984 155.0877075195313 C 134.1306457519531 169.5485229492188 118.0798187255859 175 94.55811309814453 175 Z" stroke="none" fill="#f1f1f1"/>
      </g>
    </g>
    <path id="Oval_Copy_8-2" data-name="Oval Copy 8" d="M65,130c16.529,0,27.808-10.858,39.277-21.019C117.719,97.072,130,84.37,130,65c0-15.357-11.515-25.955-20.42-37.078C97.668,13.043,85.542,0,65,0,43.593,0,29.078,14.662,17.235,30.629,9.217,41.438,0,50.508,0,65A65,65,0,0,0,65,130Z" transform="matrix(0.174, -0.985, 0.985, 0.174, 229.7, 11134.726)" fill="#d8d8d8" opacity="0.489"/>
    <g id="Oval_Copy-2" data-name="Oval Copy" transform="translate(2091 11117)" fill="none" stroke-miterlimit="10" opacity="0.489">
      <path d="M47,94c11.952,0,20.107-7.851,28.4-15.2C85.12,70.191,94,61.006,94,47c0-11.1-8.327-18.768-14.765-26.81C70.622,9.431,61.853,0,47,0,31.521,0,21.026,10.6,12.462,22.147,6.665,29.963,0,36.521,0,47A47,47,0,0,0,47,94Z" stroke="none"/>
      <path d="M 47 83.19999694824219 C 53.8621940612793 83.19999694824219 59.03523254394531 78.90631103515625 66.90719604492188 71.90077209472656 L 68.23880767822266 70.71749877929688 C 77.94184875488281 62.12107849121094 83.19999694824219 55.79526901245117 83.19999694824219 47 C 83.19999694824219 42.03265380859375 79.82569122314453 37.6841926574707 74.26838684082031 31.11288452148438 C 73.09119415283203 29.72088432312012 71.92095947265625 28.3350772857666 70.80353546142578 26.93930816650391 C 62.04903793334961 16.00423049926758 56.25411605834961 10.80000019073486 47 10.80000019073486 C 37.99742126464844 10.80000019073486 30.50419235229492 15.9515380859375 21.13626861572266 28.58107757568359 C 20.15869140625 29.89896202087402 19.15861511230469 31.18365478515625 18.1667308807373 32.45611572265625 C 13.46188449859619 38.49192428588867 10.80000019073486 42.14338302612305 10.80000019073486 47 C 10.80000019073486 66.96073150634766 27.03926849365234 83.19999694824219 47 83.19999694824219 M 47 94 C 21.04261589050293 94 0 72.95738220214844 0 47 C 0 36.52138519287109 6.664692401885986 29.96280860900879 12.46199989318848 22.14699935913086 C 21.02569198608398 10.60169219970703 31.52123069763184 0 47 0 C 61.85326766967773 0 70.62149810791016 9.431269645690918 79.2344970703125 20.18957710266113 C 85.67350006103516 28.23238372802734 94 35.8958854675293 94 47 C 94 61.0058479309082 85.11965179443359 70.19072723388672 75.40065765380859 78.80130767822266 C 67.10711669921875 86.14896392822266 58.95157623291016 94 47 94 Z" stroke="none" fill="#2b6821"/>
    </g>
    <g id="Oval_Copy_3-2" data-name="Oval Copy 3" transform="translate(865.123 11371.037) rotate(-50)" fill="none" stroke-miterlimit="10" opacity="0.489">
      <path d="M122,244c31.023,0,52.193-20.379,73.721-39.452C220.949,182.2,244,158.356,244,122c0-28.823-21.614-48.716-38.327-69.593C183.315,24.481,160.555,0,122,0,81.821,0,54.577,27.519,32.348,57.488,17.3,77.776,0,94.8,0,122A122,122,0,0,0,122,244Z" stroke="none"/>
      <path d="M 122 233.1999969482422 C 147.2750549316406 233.1999969482422 165.6635894775391 216.8352966308594 185.1318206787109 199.5096435546875 L 188.5590057373047 196.4642333984375 C 212.0838775634766 175.6223602294922 233.1999969482422 154.2442321777344 233.1999969482422 122 C 233.1999969482422 101.8653564453125 219.9592895507813 86.20864868164063 205.9411163330078 69.63264465332031 C 202.9858856201172 66.13817596435547 200.0467071533203 62.66058731079102 197.2415924072266 59.15670776367188 C 176.0605316162109 32.6999397277832 155.7791137695313 10.80000019073486 122 10.80000019073486 C 85.36482238769531 10.80000019073486 60.50694274902344 37.65358734130859 41.0224723815918 63.92200088500977 C 38.56758880615234 67.23164367675781 36.05476379394531 70.45693969726563 33.56388092041016 73.65247344970703 C 21.34905815124512 89.32264709472656 10.80000019073486 102.8559417724609 10.80000019073486 122 C 10.80000019073486 183.3158874511719 60.68411636352539 233.1999969482422 122 233.1999969482422 M 122 244 C 54.62129592895508 244 0 189.3787689208984 0 122 C 0 94.80017852783203 17.29982376098633 77.77576446533203 32.34823608398438 57.48794174194336 C 54.57729339599609 27.51929473876953 81.82112121582031 0 122 0 C 160.5552368164063 0 183.3154144287109 24.48117637634277 205.6725311279297 52.40700149536133 C 222.386474609375 73.2840576171875 244 93.17652893066406 244 122 C 244 158.3555297851563 220.9489440917969 182.1971740722656 195.7208251953125 204.5480651855469 C 174.1929931640625 223.6207580566406 153.0231781005859 244 122 244 Z" stroke="none" fill="#2b6821"/>
    </g>
    <g id="Oval-5" data-name="Oval" transform="translate(2251 10337)" fill="none" stroke-miterlimit="10">
      <path d="M94.558,175c23.522,0,39.573-5.451,55.895-19.912,19.128-16.946,36.605-35.023,36.605-62.588,0-21.854-16.387-36.936-29.06-52.765C141.047,18.562,123.791,0,94.558,0,64.095,0,23.438,20.865,6.584,43.587-4.825,58.969,2.058,71.877,2.058,92.5,2.058,143.586,43.472,175,94.558,175Z" stroke="none"/>
      <path d="M 94.55811309814453 160.9600067138672 C 115.0382308959961 160.9600067138672 127.663932800293 156.5202331542969 141.142578125 144.5787658691406 C 161.3305206298828 126.6931762695313 173.0181121826172 112.4378204345703 173.0181121826172 92.5 C 173.0181121826172 79.37647247314453 164.0815734863281 68.80935668945313 153.7339935302734 56.57364654541016 C 151.459228515625 53.88382339477539 149.1973419189453 51.20652770996094 147.0381164550781 48.50947189331055 C 128.7355194091797 25.64800071716309 115.5936965942383 14.03999996185303 94.55811309814453 14.03999996185303 C 69.13487243652344 14.03999996185303 32.57828521728516 32.10993957519531 17.86099243164063 51.95146942138672 C 13.32069778442383 58.07258987426758 13.54658031463623 62.52776336669922 14.86799240112305 74.50941467285156 C 15.444580078125 79.73764801025391 16.09811019897461 85.66346740722656 16.09811019897461 92.5 C 16.09811019897461 132.8082427978516 48.3620491027832 160.9600067138672 94.55811309814453 160.9600067138672 M 94.55811309814453 175 C 43.47181701660156 175 2.058109760284424 143.5863494873047 2.058109760284424 92.5 C 2.058109760284424 71.87717437744141 -4.825184345245361 58.96929550170898 6.584462642669678 43.58717727661133 C 23.43846321105957 20.86499977111816 64.09464263916016 0 94.55811309814453 0 C 123.7905807495117 0 141.0472869873047 18.5615291595459 157.9983520507813 39.73482513427734 C 170.6708221435547 55.56370544433594 187.05810546875 70.6461181640625 187.05810546875 92.5 C 187.05810546875 120.0646438598633 169.5808715820313 138.1412963867188 150.4529876708984 155.0877075195313 C 134.1306457519531 169.5485229492188 118.0798187255859 175 94.55811309814453 175 Z" stroke="none" fill="#f1f1f1"/>
    </g>
    <path id="vv_copy_3" data-name="vv copy 3" d="M0,132S62.863,26.4,133.6,7.733,248.354,7.645,289,27.059" transform="matrix(0.998, -0.07, 0.07, 0.998, 92.748, 451.241)" fill="none" stroke="#fff" stroke-linecap="round" stroke-miterlimit="10" stroke-width="45" opacity="0.056"/>
    <path id="vv" d="M0,59S28.278,11.8,60.1,3.457s51.619-.039,69.9,8.638" transform="translate(2293.384 702.609) rotate(146)" fill="none" stroke="#fff" stroke-linecap="round" stroke-miterlimit="10" stroke-width="20.25" opacity="0.6"/>
    <path id="vv_copy_2" data-name="vv copy 2" d="M0,59S28.278,11.8,60.1,3.457s51.619-.039,69.9,8.638" transform="translate(783.616 1179.391) rotate(-34)" fill="none" stroke="#fff" stroke-linecap="round" stroke-miterlimit="10" stroke-width="20.25" opacity="0.6"/>
    <path id="vv_copy_4" data-name="vv copy 4" d="M0-45S21.535-9,45.767-2.636,85.076-2.606,99-9.225" transform="translate(783.119 1699.527) rotate(-146)" fill="none" stroke="#2b6821" stroke-linecap="round" stroke-miterlimit="10" stroke-width="20.25" opacity="0.6"/>
    <path id="vv_copy_8" data-name="vv copy 8" d="M0-45S21.535-9,45.767-2.636,85.076-2.606,99-9.225" transform="translate(1484.119 3858.527) rotate(-146)" fill="none" stroke="#2b6821" stroke-linecap="round" stroke-miterlimit="10" stroke-width="20.25" opacity="0.6"/>
    <path id="vv_copy_6" data-name="vv copy 6" d="M0-45S21.535-9,45.767-2.636,85.076-2.606,99-9.225" transform="translate(2239.119 1329.527) rotate(-146)" fill="none" stroke="#2b6821" stroke-linecap="round" stroke-miterlimit="10" stroke-width="20.25" opacity="0.6"/>
    <path id="vv_copy_7" data-name="vv copy 7" d="M0,45S21.535,9,45.767,2.636,85.076,2.606,99,9.225" transform="translate(333.119 1113.473) rotate(146)" fill="none" stroke="#2b6821" stroke-linecap="round" stroke-miterlimit="10" stroke-width="20.25" opacity="0.6"/>
    <path id="Oval_Copy_9" data-name="Oval Copy 9" d="M65,130c16.529,0,27.808-10.858,39.277-21.019C117.719,97.072,130,84.37,130,65c0-15.357-11.515-25.955-20.42-37.078C97.668,13.043,85.542,0,65,0,43.593,0,29.078,14.662,17.235,30.629,9.217,41.438,0,50.508,0,65A65,65,0,0,0,65,130Z" transform="matrix(0.174, -0.985, 0.985, 0.174, 1064.7, 2126.726)" fill="#d8d8d8" opacity="0.489"/>
    <path id="Combined_Shape-2" data-name="Combined Shape" d="M417.521,118.341A4.747,4.747,0,1,1,422.267,123,4.7,4.7,0,0,1,417.521,118.341Zm-37.971,0A4.747,4.747,0,1,1,384.3,123,4.7,4.7,0,0,1,379.55,118.341Zm-37.971,0A4.747,4.747,0,1,1,346.325,123,4.7,4.7,0,0,1,341.579,118.341Zm-37.971,0A4.747,4.747,0,1,1,308.354,123,4.7,4.7,0,0,1,303.608,118.341Zm-37.972,0A4.747,4.747,0,1,1,270.383,123,4.7,4.7,0,0,1,265.636,118.341Zm-37.971,0A4.747,4.747,0,1,1,232.411,123,4.7,4.7,0,0,1,227.665,118.341Zm-37.809,0A4.747,4.747,0,1,1,194.6,123,4.7,4.7,0,0,1,189.856,118.341Zm-37.971,0A4.747,4.747,0,1,1,156.632,123,4.7,4.7,0,0,1,151.885,118.341Zm-37.971,0A4.747,4.747,0,1,1,118.66,123,4.7,4.7,0,0,1,113.914,118.341Zm-37.971,0A4.747,4.747,0,1,1,80.689,123,4.7,4.7,0,0,1,75.943,118.341Zm-37.972,0A4.747,4.747,0,1,1,42.718,123,4.7,4.7,0,0,1,37.971,118.341ZM0,118.341a4.7,4.7,0,0,1,4.747-4.659,4.66,4.66,0,1,1,0,9.319A4.7,4.7,0,0,1,0,118.341ZM436.506,81.068a4.747,4.747,0,1,1,4.747,4.659A4.7,4.7,0,0,1,436.506,81.068Zm-37.971,0a4.747,4.747,0,1,1,4.747,4.659A4.7,4.7,0,0,1,398.535,81.068Zm-37.971,0a4.747,4.747,0,1,1,4.747,4.659A4.7,4.7,0,0,1,360.564,81.068Zm-37.971,0a4.747,4.747,0,1,1,4.746,4.659A4.7,4.7,0,0,1,322.593,81.068Zm-37.972,0a4.747,4.747,0,1,1,4.747,4.659A4.7,4.7,0,0,1,284.621,81.068Zm-37.971,0a4.747,4.747,0,1,1,4.747,4.659A4.7,4.7,0,0,1,246.65,81.068Zm-37.809,0a4.747,4.747,0,1,1,4.747,4.659A4.7,4.7,0,0,1,208.841,81.068Zm-37.971,0a4.747,4.747,0,1,1,4.747,4.659A4.7,4.7,0,0,1,170.87,81.068Zm-37.971,0a4.747,4.747,0,1,1,4.747,4.659A4.7,4.7,0,0,1,132.9,81.068Zm-37.971,0a4.747,4.747,0,1,1,4.746,4.659A4.7,4.7,0,0,1,94.928,81.068Zm-37.972,0A4.747,4.747,0,1,1,61.7,85.728,4.7,4.7,0,0,1,56.957,81.068Zm-37.971,0a4.747,4.747,0,1,1,4.747,4.659A4.7,4.7,0,0,1,18.986,81.068ZM417.521,41.932a4.747,4.747,0,1,1,4.747,4.659A4.7,4.7,0,0,1,417.521,41.932Zm-37.971,0a4.747,4.747,0,1,1,4.747,4.659A4.7,4.7,0,0,1,379.55,41.932Zm-37.971,0a4.747,4.747,0,1,1,4.747,4.659A4.7,4.7,0,0,1,341.579,41.932Zm-37.971,0a4.747,4.747,0,1,1,4.746,4.659A4.7,4.7,0,0,1,303.608,41.932Zm-37.972,0a4.747,4.747,0,1,1,4.747,4.659A4.7,4.7,0,0,1,265.636,41.932Zm-37.971,0a4.747,4.747,0,1,1,4.747,4.659A4.7,4.7,0,0,1,227.665,41.932Zm-37.809,0a4.747,4.747,0,1,1,4.747,4.659A4.7,4.7,0,0,1,189.856,41.932Zm-37.971,0a4.747,4.747,0,1,1,4.747,4.659A4.7,4.7,0,0,1,151.885,41.932Zm-37.971,0a4.747,4.747,0,1,1,4.747,4.659A4.7,4.7,0,0,1,113.914,41.932Zm-37.971,0a4.747,4.747,0,1,1,4.746,4.659A4.7,4.7,0,0,1,75.943,41.932Zm-37.972,0a4.747,4.747,0,1,1,4.747,4.659A4.7,4.7,0,0,1,37.971,41.932ZM0,41.932a4.7,4.7,0,0,1,4.747-4.659,4.66,4.66,0,1,1,0,9.319A4.7,4.7,0,0,1,0,41.932ZM436.506,4.659a4.747,4.747,0,0,1,9.493,0,4.747,4.747,0,0,1-9.493,0Zm-37.971,0a4.747,4.747,0,0,1,9.493,0,4.747,4.747,0,0,1-9.493,0Zm-37.971,0a4.747,4.747,0,0,1,9.492,0,4.747,4.747,0,0,1-9.492,0Zm-37.971,0a4.747,4.747,0,0,1,9.492,0,4.747,4.747,0,0,1-9.492,0Zm-37.972,0a4.747,4.747,0,0,1,9.493,0,4.747,4.747,0,0,1-9.493,0Zm-37.971,0a4.747,4.747,0,0,1,9.493,0,4.747,4.747,0,0,1-9.493,0Zm-37.809,0a4.747,4.747,0,0,1,9.493,0,4.747,4.747,0,0,1-9.493,0Zm-37.971,0a4.747,4.747,0,0,1,9.493,0,4.747,4.747,0,0,1-9.493,0Zm-37.971,0a4.747,4.747,0,0,1,9.492,0,4.747,4.747,0,0,1-9.492,0Zm-37.971,0a4.747,4.747,0,0,1,9.492,0,4.747,4.747,0,0,1-9.492,0Zm-37.972,0a4.747,4.747,0,0,1,9.493,0,4.747,4.747,0,0,1-9.493,0Zm-37.971,0a4.747,4.747,0,0,1,9.493,0,4.747,4.747,0,0,1-9.493,0Z" transform="translate(2086 3213)" fill="#2b6821"/>
    <circle id="Oval_Copy_17" data-name="Oval Copy 17" cx="293.5" cy="293.5" r="293.5" transform="translate(2122 3176)" fill="#2b6821" opacity="0.217"/>
    <g id="Group_22-2" data-name="Group 22" transform="translate(-100 98)">
      <g id="Oval-6" data-name="Oval" transform="translate(543 37)" fill="none" stroke-miterlimit="10">
        <path d="M118.5,237c30.133,0,50.7-19.795,71.606-38.32C214.61,176.97,237,153.813,237,118.5c0-28-20.993-47.318-37.228-67.6C178.056,23.779,155.949,0,118.5,0,79.474,0,53.012,26.73,31.42,55.839,16.8,75.544,0,92.08,0,118.5A118.5,118.5,0,0,0,118.5,237Z" stroke="none"/>
        <path d="M 118.5 219 C 140.1920776367188 219 156.2426910400391 204.7159271240234 174.8277740478516 188.1763153076172 L 178.1694641113281 185.2069244384766 C 204.0289306640625 162.2966918945313 219 144.0369262695313 219 118.5 C 219 101.6926956176758 207.5530700683594 88.15707397460938 194.2986907958984 72.48423004150391 C 191.3844604492188 69.03823089599609 188.4867706298828 65.60838317871094 185.720458984375 62.153076171875 C 162.2760772705078 32.86907577514648 145.4427642822266 18 118.5 18 C 92.84430694580078 18 71.12538146972656 32.52323150634766 45.8773078918457 66.56215667724609 C 43.45684432983398 69.82538604736328 40.97992324829102 73.00569152832031 38.52399826049805 76.15638732910156 C 27.05715370178223 90.86699676513672 18 102.4863052368164 18 118.5 C 18 173.9159240722656 63.08407592773438 219 118.5 219 M 118.5 237 C 53.05422973632813 237 0 183.9457702636719 0 118.5 C 0 92.08045959472656 16.80353927612305 75.54446411132813 31.42023086547852 55.83869171142578 C 53.01153945922852 26.72976875305176 79.47377014160156 0 118.5 0 C 155.9491577148438 0 178.0563812255859 23.77884674072266 199.7720794677734 50.90353775024414 C 216.0065460205078 71.18161773681641 237 90.50338745117188 237 118.5 C 237 153.8125457763672 214.6102294921875 176.9702301025391 190.1058502197266 198.6799163818359 C 169.1956176757813 217.2053833007813 148.6331481933594 237 118.5 237 Z" stroke="none" fill="#fff"/>
      </g>
      <g id="Oval-7" data-name="Oval" transform="translate(490 717)" fill="none" stroke-miterlimit="10">
        <path d="M71,142c18.054,0,30.375-11.86,42.9-22.96C128.585,106.033,142,92.158,142,71c0-16.774-12.578-28.351-22.305-40.5C106.684,14.247,93.438,0,71,0,47.617,0,31.762,16.015,18.826,33.456,10.068,45.263,0,55.171,0,71A71,71,0,0,0,71,142Z" stroke="none"/>
        <path d="M 71 131.1999969482422 C 83.99118041992188 131.1999969482422 93.60604858398438 122.6433639526367 104.7390899658203 112.7355880737305 L 106.7412261962891 110.9564514160156 C 122.2318649291992 97.2325439453125 131.1999969482422 86.29486083984375 131.1999969482422 71 C 131.1999969482422 60.93540954589844 124.3432235717773 52.82745361328125 116.4037246704102 43.43922805786133 C 114.6575469970703 41.37440872192383 112.9212265014648 39.31922912597656 111.2637252807617 37.24886322021484 C 97.21986389160156 19.70700073242188 87.13668060302734 10.80000019073486 71 10.80000019073486 C 55.63363647460938 10.80000019073486 42.62422561645508 19.49986457824707 27.49986457824707 39.89013671875 C 26.04954528808594 41.84545516967773 24.56536293029785 43.75113677978516 23.09377288818359 45.63899993896484 C 16.22522735595703 54.45063781738281 10.80000019073486 61.41059112548828 10.80000019073486 71 C 10.80000019073486 104.1944122314453 37.80559158325195 131.1999969482422 71 131.1999969482422 M 71 142 C 31.78777313232422 142 0 110.2122268676758 0 71 C 0 55.17058944702148 10.06795501708984 45.26295471191406 18.82559013366699 33.45608901977539 C 31.76218223571777 16.01531791687012 47.61718368530273 0 71 0 C 93.43791198730469 0 106.6835479736328 14.24722766876221 119.6946792602539 30.49913597106934 C 129.421630859375 42.64891052246094 142 54.22568130493164 142 71 C 142 92.15773010253906 128.5850524902344 106.0327758789063 113.9030914306641 119.0402755737305 C 101.3745880126953 130.1399536132813 89.05449676513672 142 71 142 Z" stroke="none" fill="#fff"/>
      </g>
      <g id="Oval_Copy-3" data-name="Oval Copy" transform="translate(244 379)" fill="none" stroke-miterlimit="10" opacity="0.489">
        <path d="M47,94c11.952,0,20.107-7.851,28.4-15.2C85.12,70.191,94,61.006,94,47c0-11.1-8.327-18.768-14.765-26.81C70.622,9.431,61.853,0,47,0,31.521,0,21.026,10.6,12.462,22.147,6.665,29.963,0,36.521,0,47A47,47,0,0,0,47,94Z" stroke="none"/>
        <path d="M 47 83.19999694824219 C 53.8621940612793 83.19999694824219 59.03523254394531 78.90631103515625 66.90719604492188 71.90077209472656 L 68.23880767822266 70.71749877929688 C 77.94184875488281 62.12107849121094 83.19999694824219 55.79526901245117 83.19999694824219 47 C 83.19999694824219 42.03265380859375 79.82569122314453 37.6841926574707 74.26838684082031 31.11288452148438 C 73.09119415283203 29.72088432312012 71.92095947265625 28.3350772857666 70.80353546142578 26.93930816650391 C 62.04903793334961 16.00423049926758 56.25411605834961 10.80000019073486 47 10.80000019073486 C 37.99742126464844 10.80000019073486 30.50419235229492 15.9515380859375 21.13626861572266 28.58107757568359 C 20.15869140625 29.89896202087402 19.15861511230469 31.18365478515625 18.1667308807373 32.45611572265625 C 13.46188449859619 38.49192428588867 10.80000019073486 42.14338302612305 10.80000019073486 47 C 10.80000019073486 66.96073150634766 27.03926849365234 83.19999694824219 47 83.19999694824219 M 47 94 C 21.04261589050293 94 0 72.95738220214844 0 47 C 0 36.52138519287109 6.664692401885986 29.96280860900879 12.46199989318848 22.14699935913086 C 21.02569198608398 10.60169219970703 31.52123069763184 0 47 0 C 61.85326766967773 0 70.62149810791016 9.431269645690918 79.2344970703125 20.18957710266113 C 85.67350006103516 28.23238372802734 94 35.8958854675293 94 47 C 94 61.0058479309082 85.11965179443359 70.19072723388672 75.40065765380859 78.80130767822266 C 67.10711669921875 86.14896392822266 58.95157623291016 94 47 94 Z" stroke="none" fill="#2b6821"/>
      </g>
      <g id="Oval_Copy_3-3" data-name="Oval Copy 3" transform="translate(1676.122 187.037) rotate(-50)" fill="none" stroke-miterlimit="10" opacity="0.489">
        <path d="M122,244c31.023,0,52.193-20.379,73.721-39.452C220.949,182.2,244,158.356,244,122c0-28.823-21.614-48.716-38.327-69.593C183.315,24.481,160.555,0,122,0,81.821,0,54.577,27.519,32.348,57.488,17.3,77.776,0,94.8,0,122A122,122,0,0,0,122,244Z" stroke="none"/>
        <path d="M 122 233.1999969482422 C 147.2750549316406 233.1999969482422 165.6635894775391 216.8352966308594 185.1318206787109 199.5096435546875 L 188.5590057373047 196.4642333984375 C 212.0838775634766 175.6223602294922 233.1999969482422 154.2442321777344 233.1999969482422 122 C 233.1999969482422 101.8653564453125 219.9592895507813 86.20864868164063 205.9411163330078 69.63264465332031 C 202.9858856201172 66.13817596435547 200.0467071533203 62.66058731079102 197.2415924072266 59.15670776367188 C 176.0605316162109 32.6999397277832 155.7791137695313 10.80000019073486 122 10.80000019073486 C 85.36482238769531 10.80000019073486 60.50694274902344 37.65358734130859 41.0224723815918 63.92200088500977 C 38.56758880615234 67.23164367675781 36.05476379394531 70.45693969726563 33.56388092041016 73.65247344970703 C 21.34905815124512 89.32264709472656 10.80000019073486 102.8559417724609 10.80000019073486 122 C 10.80000019073486 183.3158874511719 60.68411636352539 233.1999969482422 122 233.1999969482422 M 122 244 C 54.62129592895508 244 0 189.3787689208984 0 122 C 0 94.80017852783203 17.29982376098633 77.77576446533203 32.34823608398438 57.48794174194336 C 54.57729339599609 27.51929473876953 81.82112121582031 0 122 0 C 160.5552368164063 0 183.3154144287109 24.48117637634277 205.6725311279297 52.40700149536133 C 222.386474609375 73.2840576171875 244 93.17652893066406 244 122 C 244 158.3555297851563 220.9489440917969 182.1971740722656 195.7208251953125 204.5480651855469 C 174.1929931640625 223.6207580566406 153.0231781005859 244 122 244 Z" stroke="none" fill="#2b6821"/>
      </g>
      <g id="Oval_Copy_18-2" data-name="Oval Copy 18" transform="translate(2313.84 2042.6) rotate(-50)" fill="none" stroke-miterlimit="10" opacity="0.489">
        <path d="M86,172c21.869,0,36.792-14.366,51.967-27.81C155.751,128.434,172,111.628,172,86c0-20.318-15.236-34.341-27.018-49.057C129.222,17.257,113.178,0,86,0,57.677,0,38.473,19.4,22.8,40.524,12.195,54.826,0,66.826,0,86A86,86,0,0,0,86,172Z" stroke="none"/>
        <path d="M 86 161.1999969482422 C 102.6039962768555 161.1999969482422 114.5507507324219 150.5681457519531 128.3838500976563 138.2575531005859 L 130.8052978515625 136.1058502197266 C 146.8226470947266 121.9151992797852 161.1999969482422 107.404899597168 161.1999969482422 86 C 161.1999969482422 72.97360229492188 152.2324066162109 62.36970138549805 142.7382507324219 51.14315032958984 C 140.6364440917969 48.6578483581543 138.5464019775391 46.18434906005859 136.5513458251953 43.69240188598633 C 121.6310501098633 25.05574989318848 108.4347991943359 10.80000019073486 86 10.80000019073486 C 61.58864974975586 10.80000019073486 44.73949813842773 29.07830047607422 31.47710037231445 46.95830154418945 C 29.73130035400391 49.31195068359375 27.94459915161133 51.60575103759766 26.17325019836426 53.87820053100586 C 17.58415031433105 64.89704895019531 10.80000019073486 73.60040283203125 10.80000019073486 86 C 10.80000019073486 127.4654006958008 44.53459930419922 161.1999969482422 86 161.1999969482422 M 86 172 C 38.50350189208984 172 0 133.4965057373047 0 86 C 0 66.82634735107422 12.19495010375977 54.8255500793457 22.8028507232666 40.52425003051758 C 38.47249984741211 19.39884948730469 57.67720031738281 0 86 0 C 113.1782989501953 0 129.2223510742188 17.25720024108887 144.9822998046875 36.94264984130859 C 156.7642517089844 51.65924835205078 172 65.68180084228516 172 86 C 172 111.6277008056641 155.7509002685547 128.4340515136719 137.9671478271484 144.1896514892578 C 122.791748046875 157.6342926025391 107.8687973022461 172 86 172 Z" stroke="none" fill="#2b6821"/>
      </g>
      <g id="Oval_Copy_12-2" data-name="Oval Copy 12" transform="translate(2407.426 3897.012) rotate(-50)" fill="none" stroke-miterlimit="10" opacity="0.489">
        <path d="M65,130c16.529,0,27.808-10.858,39.277-21.019C117.719,97.072,130,84.37,130,65c0-15.357-11.515-25.955-20.42-37.078C97.668,13.043,85.542,0,65,0,43.593,0,29.078,14.662,17.235,30.629,9.217,41.438,0,50.508,0,65A65,65,0,0,0,65,130Z" stroke="none"/>
        <path d="M 65 119.1999969482422 C 76.54595184326172 119.1999969482422 85.22804260253906 111.473503112793 95.28108978271484 102.5269546508789 L 97.11563873291016 100.8967742919922 C 111.4384078979492 88.20745086669922 119.1999969482422 78.72850036621094 119.1999969482422 65 C 119.1999969482422 56.12009048461914 113.0226364135742 48.81558990478516 105.8698654174805 40.35763549804688 C 104.2659530639648 38.46104431152344 102.6711807250977 36.57322692871094 101.148681640625 34.67150115966797 C 88.47336578369141 18.8390007019043 79.40241241455078 10.80000019073486 65 10.80000019073486 C 51.25413513183594 10.80000019073486 39.56336212158203 18.65431785583496 25.90895462036133 37.06290817260742 C 24.57686424255371 38.85881805419922 23.21368217468262 40.60922622680664 21.86204528808594 42.34322738647461 C 15.0035457611084 51.1419563293457 10.80000019073486 56.94354629516602 10.80000019073486 65 C 10.80000019073486 94.88600158691406 35.11399841308594 119.1999969482422 65 119.1999969482422 M 65 130 C 29.10149955749512 130 0 100.8984985351563 0 65 C 0 50.50827407836914 9.217136383056641 41.43790817260742 17.23472785949707 30.62881851196289 C 29.07804489135742 14.66190910339355 43.59322738647461 0 65 0 C 85.54172515869141 0 97.66804504394531 13.04322719573975 109.5796356201172 27.92177200317383 C 118.4845886230469 39.04477310180664 130 49.64322662353516 130 65 C 130 84.36977386474609 117.7186813354492 97.07227325439453 104.2774963378906 108.9805450439453 C 92.80772399902344 119.1421813964844 81.52872467041016 130 65 130 Z" stroke="none" fill="#2b6821"/>
      </g>
      <g id="Oval_Copy_13-2" data-name="Oval Copy 13" transform="translate(0.426 3950.012) rotate(-50)" fill="none" stroke-miterlimit="10" opacity="0.489">
        <path d="M65,130c16.529,0,27.808-10.858,39.277-21.019C117.719,97.072,130,84.37,130,65c0-15.357-11.515-25.955-20.42-37.078C97.668,13.043,85.542,0,65,0,43.593,0,29.078,14.662,17.235,30.629,9.217,41.438,0,50.508,0,65A65,65,0,0,0,65,130Z" stroke="none"/>
        <path d="M 65 119.1999969482422 C 76.54595184326172 119.1999969482422 85.22804260253906 111.473503112793 95.28108978271484 102.5269546508789 L 97.11563873291016 100.8967742919922 C 111.4384078979492 88.20745086669922 119.1999969482422 78.72850036621094 119.1999969482422 65 C 119.1999969482422 56.12009048461914 113.0226364135742 48.81558990478516 105.8698654174805 40.35763549804688 C 104.2659530639648 38.46104431152344 102.6711807250977 36.57322692871094 101.148681640625 34.67150115966797 C 88.47336578369141 18.8390007019043 79.40241241455078 10.80000019073486 65 10.80000019073486 C 51.25413513183594 10.80000019073486 39.56336212158203 18.65431785583496 25.90895462036133 37.06290817260742 C 24.57686424255371 38.85881805419922 23.21368217468262 40.60922622680664 21.86204528808594 42.34322738647461 C 15.0035457611084 51.1419563293457 10.80000019073486 56.94354629516602 10.80000019073486 65 C 10.80000019073486 94.88600158691406 35.11399841308594 119.1999969482422 65 119.1999969482422 M 65 130 C 29.10149955749512 130 0 100.8984985351563 0 65 C 0 50.50827407836914 9.217136383056641 41.43790817260742 17.23472785949707 30.62881851196289 C 29.07804489135742 14.66190910339355 43.59322738647461 0 65 0 C 85.54172515869141 0 97.66804504394531 13.04322719573975 109.5796356201172 27.92177200317383 C 118.4845886230469 39.04477310180664 130 49.64322662353516 130 65 C 130 84.36977386474609 117.7186813354492 97.07227325439453 104.2774963378906 108.9805450439453 C 92.80772399902344 119.1421813964844 81.52872467041016 130 65 130 Z" stroke="none" fill="#2b6821"/>
      </g>
      <g id="Oval_Copy_14-2" data-name="Oval Copy 14" transform="translate(92.426 5229.012) rotate(-50)" fill="none" stroke-miterlimit="10" opacity="0.489">
        <path d="M65,130c16.529,0,27.808-10.858,39.277-21.019C117.719,97.072,130,84.37,130,65c0-15.357-11.515-25.955-20.42-37.078C97.668,13.043,85.542,0,65,0,43.593,0,29.078,14.662,17.235,30.629,9.217,41.438,0,50.508,0,65A65,65,0,0,0,65,130Z" stroke="none"/>
        <path d="M 65 119.1999969482422 C 76.54595184326172 119.1999969482422 85.22804260253906 111.473503112793 95.28108978271484 102.5269546508789 L 97.11563873291016 100.8967742919922 C 111.4384078979492 88.20745086669922 119.1999969482422 78.72850036621094 119.1999969482422 65 C 119.1999969482422 56.12009048461914 113.0226364135742 48.81558990478516 105.8698654174805 40.35763549804688 C 104.2659530639648 38.46104431152344 102.6711807250977 36.57322692871094 101.148681640625 34.67150115966797 C 88.47336578369141 18.8390007019043 79.40241241455078 10.80000019073486 65 10.80000019073486 C 51.25413513183594 10.80000019073486 39.56336212158203 18.65431785583496 25.90895462036133 37.06290817260742 C 24.57686424255371 38.85881805419922 23.21368217468262 40.60922622680664 21.86204528808594 42.34322738647461 C 15.0035457611084 51.1419563293457 10.80000019073486 56.94354629516602 10.80000019073486 65 C 10.80000019073486 94.88600158691406 35.11399841308594 119.1999969482422 65 119.1999969482422 M 65 130 C 29.10149955749512 130 0 100.8984985351563 0 65 C 0 50.50827407836914 9.217136383056641 41.43790817260742 17.23472785949707 30.62881851196289 C 29.07804489135742 14.66190910339355 43.59322738647461 0 65 0 C 85.54172515869141 0 97.66804504394531 13.04322719573975 109.5796356201172 27.92177200317383 C 118.4845886230469 39.04477310180664 130 49.64322662353516 130 65 C 130 84.36977386474609 117.7186813354492 97.07227325439453 104.2774963378906 108.9805450439453 C 92.80772399902344 119.1421813964844 81.52872467041016 130 65 130 Z" stroke="none" fill="#2b6821"/>
      </g>
      <g id="Oval_Copy_15-2" data-name="Oval Copy 15" transform="translate(1752.558 4057.163) rotate(-50)" fill="none" stroke-miterlimit="10" opacity="0.489">
        <path d="M50,100c12.714,0,21.391-8.352,30.213-16.169C90.553,74.671,100,64.9,100,50c0-11.813-8.858-19.966-15.708-28.522C75.129,10.033,65.8,0,50,0,33.533,0,22.368,11.278,13.257,23.561,7.09,31.875,0,38.853,0,50A50,50,0,0,0,50,100Z" stroke="none"/>
        <path d="M 50 89.19999694824219 C 57.93316650390625 89.19999694824219 64.28341674804688 83.54866790771484 71.63632965087891 77.00495910644531 L 73.05158233642578 75.74737548828125 C 83.52462768554688 66.46875 89.19999694824219 59.61745834350586 89.19999694824219 50 C 89.19999694824219 44.08187484741211 84.72129058837891 38.78595733642578 79.53537750244141 32.65375137329102 C 78.28704071044922 31.17762565612793 77.04604339599609 29.7081241607666 75.861083984375 28.22804260253906 C 66.40753936767578 16.41979217529297 60.12641525268555 10.80000019073486 50 10.80000019073486 C 40.17629241943359 10.80000019073486 32.04437637329102 16.361083984375 21.93170738220215 29.99470901489258 C 20.89508247375488 31.39225006103516 19.83449935913086 32.75454330444336 18.78266716003418 34.10387420654297 C 13.68445873260498 40.64429092407227 10.80000019073486 44.60737609863281 10.80000019073486 50 C 10.80000019073486 71.61495971679688 28.38504219055176 89.19999694824219 50 89.19999694824219 M 50 100 C 22.38574981689453 100 7.105427357601002e-15 77.61425018310547 7.105427357601002e-15 50 C 7.105427357601002e-15 38.85250091552734 7.090083122253418 31.87529182434082 13.25745868682861 23.56062507629395 C 22.36775016784668 11.27837467193604 33.53324890136719 7.105427357601002e-15 50 7.105427357601002e-15 C 65.80133056640625 7.105427357601002e-15 75.12924957275391 10.0332498550415 84.29203796386719 21.47829246520996 C 91.14199829101563 30.03445816040039 100 38.18708419799805 100 50 C 100 64.89983367919922 90.55283355712891 74.67095947265625 80.21345520019531 83.83116912841797 C 71.39058685302734 91.64783477783203 62.71441650390625 100 50 100 Z" stroke="none" fill="#2b6821"/>
      </g>
      <path id="Oval_Copy_8-3" data-name="Oval Copy 8" d="M65,130c16.529,0,27.808-10.858,39.277-21.019C117.719,97.072,130,84.37,130,65c0-15.357-11.515-25.955-20.42-37.078C97.668,13.043,85.542,0,65,0,43.593,0,29.078,14.662,17.235,30.629,9.217,41.438,0,50.508,0,65A65,65,0,0,0,65,130Z" transform="matrix(0.174, -0.985, 0.985, 0.174, 2031.7, 1760.725)" fill="#d8d8d8" opacity="0.489"/>
      <path id="Oval_Copy_16-2" data-name="Oval Copy 16" d="M49,98c12.46,0,20.963-8.185,29.609-15.845C88.742,73.178,98,63.6,98,49c0-11.577-8.681-19.566-15.394-27.951C73.627,9.833,64.485,0,49,0,32.863,0,21.92,11.053,12.992,23.089,6.948,31.238,0,38.075,0,49A49,49,0,0,0,49,98Z" transform="matrix(0.174, -0.985, 0.985, 0.174, 335.236, 3889.747)" fill="#d8d8d8" opacity="0.489"/>
      <path id="Oval_Copy_10-2" data-name="Oval Copy 10" d="M22,44c5.594,0,9.412-3.675,13.294-7.114C39.843,32.855,44,28.556,44,22c0-5.2-3.9-8.785-6.912-12.55C33.057,4.415,28.953,0,22,0,14.755,0,9.842,4.962,5.833,10.367,3.12,14.025,0,17.1,0,22A22,22,0,0,0,22,44Z" transform="matrix(0.174, -0.985, 0.985, 0.174, 2235.514, 2464.845)" fill="#d8d8d8" opacity="0.489"/>
      <path id="Oval_Copy_11-2" data-name="Oval Copy 11" d="M22,44c5.594,0,9.412-3.675,13.294-7.114C39.843,32.855,44,28.556,44,22c0-5.2-3.9-8.785-6.912-12.55C33.057,4.415,28.953,0,22,0,14.755,0,9.842,4.962,5.833,10.367,3.12,14.025,0,17.1,0,22A22,22,0,0,0,22,44Z" transform="matrix(0.174, -0.985, 0.985, 0.174, 1299.514, 2363.845)" fill="#d8d8d8" opacity="0.489"/>
      <g id="Oval-8" data-name="Oval" transform="translate(2248 187)" fill="none" stroke-miterlimit="10">
        <path d="M94.558,175c23.522,0,39.573-5.451,55.895-19.912,19.128-16.946,36.605-35.023,36.605-62.588,0-21.854-16.387-36.936-29.06-52.765C141.047,18.562,123.791,0,94.558,0,64.095,0,23.438,20.865,6.584,43.587-4.825,58.969,2.058,71.877,2.058,92.5,2.058,143.586,43.472,175,94.558,175Z" stroke="none"/>
        <path d="M 94.55811309814453 160.9600067138672 C 115.0382308959961 160.9600067138672 127.663932800293 156.5202331542969 141.142578125 144.5787658691406 C 161.3305206298828 126.6931762695313 173.0181121826172 112.4378204345703 173.0181121826172 92.5 C 173.0181121826172 79.37647247314453 164.0815734863281 68.80935668945313 153.7339935302734 56.57364654541016 C 151.459228515625 53.88382339477539 149.1973419189453 51.20652770996094 147.0381164550781 48.50947189331055 C 128.7355194091797 25.64800071716309 115.5936965942383 14.03999996185303 94.55811309814453 14.03999996185303 C 69.13487243652344 14.03999996185303 32.57828521728516 32.10993957519531 17.86099243164063 51.95146942138672 C 13.32069778442383 58.07258987426758 13.54658031463623 62.52776336669922 14.86799240112305 74.50941467285156 C 15.444580078125 79.73764801025391 16.09811019897461 85.66346740722656 16.09811019897461 92.5 C 16.09811019897461 132.8082427978516 48.3620491027832 160.9600067138672 94.55811309814453 160.9600067138672 M 94.55811309814453 175 C 43.47181701660156 175 2.058109760284424 143.5863494873047 2.058109760284424 92.5 C 2.058109760284424 71.87717437744141 -4.825184345245361 58.96929550170898 6.584462642669678 43.58717727661133 C 23.43846321105957 20.86499977111816 64.09464263916016 0 94.55811309814453 0 C 123.7905807495117 0 141.0472869873047 18.5615291595459 157.9983520507813 39.73482513427734 C 170.6708221435547 55.56370544433594 187.05810546875 70.6461181640625 187.05810546875 92.5 C 187.05810546875 120.0646438598633 169.5808715820313 138.1412963867188 150.4529876708984 155.0877075195313 C 134.1306457519531 169.5485229492188 118.0798187255859 175 94.55811309814453 175 Z" stroke="none" fill="#f1f1f1"/>
      </g>
    </g>
    <path id="Path_11" data-name="Path 11" d="M648,0S538.921,191.808,378.329,329.6,0,556,0,556" transform="translate(1702 744)" fill="none" stroke="#fff" stroke-linecap="round" stroke-miterlimit="10" stroke-width="60"/>
    <path id="Path_11-2" data-name="Path 11" d="M92,0C58.723,16.576,0,26,0,26" transform="translate(1528 1330)" fill="none" stroke="#fff" stroke-linecap="round" stroke-miterlimit="10" stroke-width="60"/>
    <path id="vv_copy_5" data-name="vv copy 5" d="M0,130S21.535,26,45.767,7.616,85.076,7.529,99,26.649" transform="translate(2470.19 2637.567) rotate(-146)" fill="none" stroke="#2b6821" stroke-linecap="round" stroke-miterlimit="10" stroke-width="20.25" opacity="0.6"/>
    <path id="Path_14" data-name="Path 14" d="M.5,0V730" transform="translate(1186 -279)" fill="none" stroke="#2b6821" stroke-linecap="round" stroke-miterlimit="10" stroke-width="21" opacity="0.356"/>
    <path id="Oval_Copy_8-4" data-name="Oval Copy 8" d="M65,130c16.529,0,27.808-10.858,39.277-21.019C117.719,97.072,130,84.37,130,65c0-15.357-11.515-25.955-20.42-37.078C97.668,13.043,85.542,0,65,0,43.593,0,29.078,14.662,17.235,30.629,9.217,41.438,0,50.508,0,65A65,65,0,0,0,65,130Z" transform="matrix(0.174, -0.985, 0.985, 0.174, 1940.7, 13104.726)" fill="#d8d8d8" opacity="0.489"/>
  </g>
</svg>
