<svg xmlns="http://www.w3.org/2000/svg" xmlns:xlink="http://www.w3.org/1999/xlink" width="157.616" height="174.332" viewBox="0 0 157.616 174.332">
  <defs>
    <clipPath id="clip-path">
      <path id="Mask" d="M53.163,98.393c-1.087,0-2.177-.025-3.239-.074,1,.038,2.06.058,3.142.058,1.471,0,2.928-.039,4.331-.117C55.992,98.349,54.567,98.393,53.163,98.393ZM49.7,98.311c-7.353-.3-13.364-1.557-18.375-3.855A56.933,56.933,0,0,0,49.7,98.309Zm7.942-.065v0a61.317,61.317,0,0,0,16.326-3.328A53.346,53.346,0,0,1,57.641,98.246ZM74.021,94.9v0A32.583,32.583,0,0,0,92.714,76.858c1.711-3.883,2.816-10.3,2.957-17.177.157-7.644-.893-14.582-2.957-19.535-2.442-5.861-7.683-12.106-14.02-16.705a43.738,43.738,0,0,0-25.628-8.594c-19.271,0-32.442,8.235-39.146,24.476-7.866,19.055-2.028,32.6.847,37.534.318.546.632,1.1.965,1.686,2.992,5.276,6.717,11.842,15.593,15.912-10.6-4.242-19.154-11.848-25.42-22.6A45.188,45.188,0,0,1,.1,51.984,59.313,59.313,0,0,1,4.858,25.561c3.662-8.866,8.584-15.6,14.629-20A27.489,27.489,0,0,1,35.769,0c5.177,0,7.166,1.091,9.089,2.146,1.9,1.042,3.692,2.026,8.306,2.026a16.743,16.743,0,0,0,8.351-1.859C63.956,1.176,66.48,0,73.237,0a19.923,19.923,0,0,1,9.04,2.276A31.6,31.6,0,0,1,90.3,8.285a58.2,58.2,0,0,1,11.787,18.29c2.547,6.109,3.843,14.666,3.65,24.093-.174,8.476-1.538,16.4-3.65,21.185-1.682,3.815-5.093,8.2-9.36,12.026A56.49,56.49,0,0,1,74.021,94.9Z" transform="translate(0 0)" fill="#2b6821"/>
    </clipPath>
    <clipPath id="clip-path-2">
      <path id="Mask-2" data-name="Mask" d="M35.917,7.227S43.5,0,51.879,0,68.914,3.054,70.945,17.2s-.656,48.834-4.819,61.914S50.275,105.44,35.917,105.44,11.16,93.479,6.434,79.115-1.573,30.866.781,17.2,12.269,0,19.816,0,35.917,7.227,35.917,7.227Z" transform="translate(0.079 0.046)" fill="#c384b6"/>
    </clipPath>
  </defs>
  <g id="Group_2" data-name="Group 2" transform="translate(25.82)">
    <g id="Group" transform="translate(0 24.092)">
      <g id="Group_6" data-name="Group 6">
        <path id="Path_12" data-name="Path 12" d="M43.083,0C23.1,0,10.384,8.861,3.937,24.477s-4.12,29,.848,37.535,10.43,21.519,38.3,21.519S79.35,69.682,82.73,62.011s4.506-25.9,0-36.712S63.069,0,43.083,0Z" transform="translate(9.983 14.847)" fill="#222"/>
        <path id="Path_13" data-name="Path 13" d="M.574,17.678s4.355.4,6.147-1.216,2.8-3.4,2.8-3.917,2.423,2.606,6.563,2.606,5.84-2.606,6.509-2.606,1.491,4.16,4.155,4.646,7.7.729,9.1,0,1.884-2.069,2.441-2.069.127,2.059,3,2.555,7.346.243,8.973-.486a3.921,3.921,0,0,0,2.388-2.069c.761-1.142.84-2.577,1.4-2.577s.744,2.107,2.726,2.606a16.888,16.888,0,0,0,7.513-.029c1.787-.628,1.4-2.033,1.985-2.033s2.478,4.991,4.46,4.991h5.3A80.46,80.46,0,0,0,69.4,10.794,38.819,38.819,0,0,0,56.777,2.877C51.334.975,42.717,0,38.291,0S24.58.962,20.332,2.407,9.1,6.775,3.809,12.545.574,17.678.574,17.678Z" transform="translate(14.876 14.847)" fill="#fff" stroke="#bababa" stroke-miterlimit="10" stroke-width="1.185"/>
        <g id="Path_2" data-name="Path 2" transform="translate(0 0)">
          <path id="Mask-3" data-name="Mask" d="M53.163,98.393c-1.087,0-2.177-.025-3.239-.074,1,.038,2.06.058,3.142.058,1.471,0,2.928-.039,4.331-.117C55.992,98.349,54.567,98.393,53.163,98.393ZM49.7,98.311c-7.353-.3-13.364-1.557-18.375-3.855A56.933,56.933,0,0,0,49.7,98.309Zm7.942-.065v0a61.317,61.317,0,0,0,16.326-3.328A53.346,53.346,0,0,1,57.641,98.246ZM74.021,94.9v0A32.583,32.583,0,0,0,92.714,76.858c1.711-3.883,2.816-10.3,2.957-17.177.157-7.644-.893-14.582-2.957-19.535-2.442-5.861-7.683-12.106-14.02-16.705a43.738,43.738,0,0,0-25.628-8.594c-19.271,0-32.442,8.235-39.146,24.476-7.866,19.055-2.028,32.6.847,37.534.318.546.632,1.1.965,1.686,2.992,5.276,6.717,11.842,15.593,15.912-10.6-4.242-19.154-11.848-25.42-22.6A45.188,45.188,0,0,1,.1,51.984,59.313,59.313,0,0,1,4.858,25.561c3.662-8.866,8.584-15.6,14.629-20A27.489,27.489,0,0,1,35.769,0c5.177,0,7.166,1.091,9.089,2.146,1.9,1.042,3.692,2.026,8.306,2.026a16.743,16.743,0,0,0,8.351-1.859C63.956,1.176,66.48,0,73.237,0a19.923,19.923,0,0,1,9.04,2.276A31.6,31.6,0,0,1,90.3,8.285a58.2,58.2,0,0,1,11.787,18.29c2.547,6.109,3.843,14.666,3.65,24.093-.174,8.476-1.538,16.4-3.65,21.185-1.682,3.815-5.093,8.2-9.36,12.026A56.49,56.49,0,0,1,74.021,94.9Z" transform="translate(0 0)" fill="#2b6821"/>
          <g id="Path_2-2" data-name="Path 2" clip-path="url(#clip-path)">
            <path id="Path_2-3" data-name="Path 2" d="M22.385,40.971c1.221-4.709,1.482-9.683,3.6-18.49s5.49-11.371,7.647-15.92C37.861-2.37,4.363.856,4.363.856L0,28.022,12.024,48.9l8.95-4.137S19.9,50.57,22.385,40.971Z" transform="translate(-22.32 15.152) rotate(-3)" opacity="0.053"/>
          </g>
        </g>
        <path id="Combined_Shape_Copy" data-name="Combined Shape Copy" d="M13.737,45.278c2.046-4.64,4.644-13.651,3.68-27.8C17.07,12.392,13.737,0,13.737,0s.821,21.088,0,29.569c-1.169,12.067-3.614,17.4-4.146,18.423C7.486,52.04-.393,54.311.015,58.495.655,65.053,12.514,48.054,13.737,45.278Z" transform="translate(88.338 27.043)" opacity="0.047"/>
        <path id="Combined_Shape" data-name="Combined Shape" d="M53.163,98.393c-1.087,0-2.177-.025-3.239-.074,1,.038,2.06.058,3.142.058,1.471,0,2.928-.039,4.331-.117C55.992,98.349,54.567,98.393,53.163,98.393ZM49.7,98.311c-7.353-.3-13.364-1.557-18.375-3.855A56.933,56.933,0,0,0,49.7,98.309Zm7.942-.065v0a61.317,61.317,0,0,0,16.326-3.328A53.346,53.346,0,0,1,57.641,98.246ZM74.021,94.9v0A32.583,32.583,0,0,0,92.714,76.858c1.711-3.883,2.816-10.3,2.957-17.177.157-7.644-.893-14.582-2.957-19.535-2.442-5.861-7.683-12.106-14.02-16.705a43.738,43.738,0,0,0-25.628-8.594c-19.271,0-32.442,8.235-39.146,24.476-7.866,19.055-2.028,32.6.847,37.534.318.546.632,1.1.965,1.686,2.992,5.276,6.717,11.842,15.593,15.912-10.6-4.242-19.154-11.848-25.42-22.6A45.188,45.188,0,0,1,.1,51.984,59.313,59.313,0,0,1,4.858,25.561c3.662-8.866,8.584-15.6,14.629-20A27.489,27.489,0,0,1,35.769,0c5.177,0,7.166,1.091,9.089,2.146,1.9,1.042,3.692,2.026,8.306,2.026a16.743,16.743,0,0,0,8.351-1.859C63.956,1.176,66.48,0,73.237,0a19.923,19.923,0,0,1,9.04,2.276A31.6,31.6,0,0,1,90.3,8.285a58.2,58.2,0,0,1,11.787,18.29c2.547,6.109,3.843,14.666,3.65,24.093-.174,8.476-1.538,16.4-3.65,21.185-1.682,3.815-5.093,8.2-9.36,12.026A56.49,56.49,0,0,1,74.021,94.9Z" transform="translate(0 0)" fill="none" stroke="#1d4b15" stroke-miterlimit="10" stroke-width="2.633"/>
        <g id="Path_4" data-name="Path 4" transform="translate(16.649 43.437)">
          <path id="Mask-4" data-name="Mask" d="M35.917,7.227S43.5,0,51.879,0,68.914,3.054,70.945,17.2s-.656,48.834-4.819,61.914S50.275,105.44,35.917,105.44,11.16,93.479,6.434,79.115-1.573,30.866.781,17.2,12.269,0,19.816,0,35.917,7.227,35.917,7.227Z" transform="translate(0.079 0.046)" fill="#c384b6"/>
          <g id="Path_4-2" data-name="Path 4" clip-path="url(#clip-path-2)">
            <path id="Path_4-3" data-name="Path 4" d="M2.6,19.457A30.575,30.575,0,0,1,24.392,2.577C40.536-.542,3.8.114,3.8.114L1.528,7.6,0,14.011Z" transform="translate(-0.79 -0.527)" opacity="0.083"/>
          </g>
        </g>
        <path id="Path_3" data-name="Path 3" d="M9.94,22.071S26.354,10.626,28.017,2.835s-5.07,2.372-9.819,7.737S9.94,19.756,2.485,23.24,9.94,22.071,9.94,22.071Z" transform="translate(52.929 125.023)" opacity="0.048"/>
        <path id="Path_14_Copy" data-name="Path 14 Copy" d="M35.917,7.227S43.5,0,51.879,0,68.914,3.054,70.945,17.2s-.656,48.834-4.819,61.914S50.275,105.44,35.917,105.44,11.16,93.479,6.434,79.115-1.573,30.866.781,17.2,12.269,0,19.816,0,35.917,7.227,35.917,7.227Z" transform="translate(16.729 43.484)" fill="none" stroke="#b370a5" stroke-miterlimit="10" stroke-width="2.633"/>
        <path id="vvvvvvvv" d="M11.175,14.181S10.5,8.924,9.056,6.474A13.028,13.028,0,0,0,0,0" transform="translate(71.09 49.895)" fill="none" stroke="#d28cc4" stroke-linecap="round" stroke-miterlimit="10" stroke-width="3.949"/>
        <path id="vvvvvvvv_copy" data-name="vvvvvvvv copy" d="M.3,2S.111.628,0,0" transform="translate(83.07 70.037)" fill="none" stroke="#d28cc4" stroke-linecap="round" stroke-miterlimit="10" stroke-width="3.949"/>
        <path id="Path" d="M0,0A69.358,69.358,0,0,0,3.266,6.16a38.632,38.632,0,0,0,6.572,7.727,24.163,24.163,0,0,0,7.907,4.646,19.569,19.569,0,0,0,7.267,1.124" transform="matrix(0.999, 0.035, -0.035, 0.999, 28.26, 123.845)" fill="none" stroke="#d28cc4" stroke-linecap="round" stroke-miterlimit="10" stroke-width="3.949"/>
      </g>
      <text id="_" data-name="$$$$$$" transform="translate(52.988 115.215)" fill="#2b6821" stroke="#347f29" stroke-miterlimit="10" stroke-width="22.808" font-size="34.334" font-family="SegoeUI, Segoe UI" letter-spacing="-0.003em"><tspan x="-55.289" y="0">$$$$$$</tspan></text>
      <text id="_2" data-name="$$$$$$" transform="translate(52.988 118.386)" fill="#fff" font-size="31.701" font-family="SegoeUI, Segoe UI" letter-spacing="-0.003em"><tspan x="-51.049" y="0">$$$$$$</tspan></text>
      <path id="vv" d="M0,6.9A36.847,36.847,0,0,1,9.425,1.564,21.105,21.105,0,0,1,20.993.291" transform="translate(20.142 6.187)" fill="none" stroke="#3e9330" stroke-linecap="round" stroke-miterlimit="10" stroke-width="3.949" opacity="0.537"/>
    </g>
    <text id="Money_Mouth" data-name="Money Mouth" transform="translate(53.054 20)" fill="#2b6821" font-size="18.404" font-family="SegoeUI, Segoe UI" letter-spacing="-0.003em"><tspan x="-66.972" y="0">MONEY MOUTH</tspan></text>
  </g>
</svg>
